<svg width="276" height="32" viewBox="0 0 276 32" fill="none" xmlns="http://www.w3.org/2000/svg">
<path d="M48.9609 17.5664C48.9609 15.5977 49.4219 14.0273 50.3438 12.8555C51.2734 11.6758 52.5039 11.0859 54.0352 11.0859C55.4805 11.0859 56.6172 11.5898 57.4453 12.5977L57.5742 11.3203H60.1406V23.6133C60.1406 25.2773 59.6211 26.5898 58.582 27.5508C57.5508 28.5117 56.1562 28.9922 54.3984 28.9922C53.4688 28.9922 52.5586 28.7969 51.668 28.4062C50.7852 28.0234 50.1133 27.5195 49.6523 26.8945L51 25.1836C51.875 26.2227 52.9531 26.7422 54.2344 26.7422C55.1797 26.7422 55.9258 26.4844 56.4727 25.9688C57.0195 25.4609 57.293 24.7109 57.293 23.7188V22.8633C56.4727 23.7773 55.3789 24.2344 54.0117 24.2344C52.5273 24.2344 51.3125 23.6445 50.3672 22.4648C49.4297 21.2852 48.9609 19.6523 48.9609 17.5664ZM51.7969 17.8125C51.7969 19.0859 52.0547 20.0898 52.5703 20.8242C53.0938 21.5508 53.8164 21.9141 54.7383 21.9141C55.8867 21.9141 56.7383 21.4219 57.293 20.4375V14.8594C56.7539 13.8984 55.9102 13.418 54.7617 13.418C53.8242 13.418 53.0938 13.7891 52.5703 14.5312C52.0547 15.2734 51.7969 16.3672 51.7969 17.8125ZM66.1055 24H63.2578V11.3203H66.1055V24ZM63.082 8.02734C63.082 7.58984 63.2188 7.22656 63.4922 6.9375C63.7734 6.64844 64.1719 6.50391 64.6875 6.50391C65.2031 6.50391 65.6016 6.64844 65.8828 6.9375C66.1641 7.22656 66.3047 7.58984 66.3047 8.02734C66.3047 8.45703 66.1641 8.81641 65.8828 9.10547C65.6016 9.38672 65.2031 9.52734 64.6875 9.52734C64.1719 9.52734 63.7734 9.38672 63.4922 9.10547C63.2188 8.81641 63.082 8.45703 63.082 8.02734ZM72.7852 8.23828V11.3203H75.0234V13.4297H72.7852V20.5078C72.7852 20.9922 72.8789 21.3438 73.0664 21.5625C73.2617 21.7734 73.6055 21.8789 74.0977 21.8789C74.4258 21.8789 74.7578 21.8398 75.0938 21.7617V23.9648C74.4453 24.1445 73.8203 24.2344 73.2188 24.2344C71.0312 24.2344 69.9375 23.0273 69.9375 20.6133V13.4297H67.8516V11.3203H69.9375V8.23828H72.7852ZM80.0156 12.7031C80.9453 11.625 82.1211 11.0859 83.543 11.0859C86.2461 11.0859 87.6172 12.6289 87.6562 15.7148V24H84.8086V15.8203C84.8086 14.9453 84.6172 14.3281 84.2344 13.9688C83.8594 13.6016 83.3047 13.418 82.5703 13.418C81.4297 13.418 80.5781 13.9258 80.0156 14.9414V24H77.168V6H80.0156V12.7031ZM98.2266 22.7578C97.3906 23.7422 96.2031 24.2344 94.6641 24.2344C93.2891 24.2344 92.2461 23.832 91.5352 23.0273C90.832 22.2227 90.4805 21.0586 90.4805 19.5352V11.3203H93.3281V19.5C93.3281 21.1094 93.9961 21.9141 95.332 21.9141C96.7148 21.9141 97.6484 21.418 98.1328 20.4258V11.3203H100.98V24H98.2969L98.2266 22.7578ZM115.008 17.7891C115.008 19.7578 114.566 21.3242 113.684 22.4883C112.809 23.6523 111.602 24.2344 110.062 24.2344C108.578 24.2344 107.422 23.6992 106.594 22.6289L106.453 24H103.875V6H106.723V12.5391C107.543 11.5703 108.648 11.0859 110.039 11.0859C111.586 11.0859 112.801 11.6602 113.684 12.8086C114.566 13.957 115.008 15.5625 115.008 17.625V17.7891ZM112.16 17.543C112.16 16.168 111.918 15.1367 111.434 14.4492C110.949 13.7617 110.246 13.418 109.324 13.418C108.09 13.418 107.223 13.957 106.723 15.0352V20.2617C107.23 21.3633 108.105 21.9141 109.348 21.9141C110.238 21.9141 110.926 21.582 111.41 20.918C111.895 20.2539 112.145 19.25 112.16 17.9062V17.543Z" fill="#3A3A3A"/>
<path d="M122.93 17.8945H116.777V15.5977H122.93V17.8945Z" fill="#737380"/>
<path d="M132.387 20.5547C132.387 20.0469 132.176 19.6602 131.754 19.3945C131.34 19.1289 130.648 18.8945 129.68 18.6914C128.711 18.4883 127.902 18.2305 127.254 17.918C125.832 17.2305 125.121 16.2344 125.121 14.9297C125.121 13.8359 125.582 12.9219 126.504 12.1875C127.426 11.4531 128.598 11.0859 130.02 11.0859C131.535 11.0859 132.758 11.4609 133.688 12.2109C134.625 12.9609 135.094 13.9336 135.094 15.1289H132.246C132.246 14.582 132.043 14.1289 131.637 13.7695C131.23 13.4023 130.691 13.2188 130.02 13.2188C129.395 13.2188 128.883 13.3633 128.484 13.6523C128.094 13.9414 127.898 14.3281 127.898 14.8125C127.898 15.25 128.082 15.5898 128.449 15.832C128.816 16.0742 129.559 16.3203 130.676 16.5703C131.793 16.8125 132.668 17.1055 133.301 17.4492C133.941 17.7852 134.414 18.1914 134.719 18.668C135.031 19.1445 135.188 19.7227 135.188 20.4023C135.188 21.543 134.715 22.4688 133.77 23.1797C132.824 23.8828 131.586 24.2344 130.055 24.2344C129.016 24.2344 128.09 24.0469 127.277 23.6719C126.465 23.2969 125.832 22.7812 125.379 22.125C124.926 21.4688 124.699 20.7617 124.699 20.0039H127.465C127.504 20.6758 127.758 21.1953 128.227 21.5625C128.695 21.9219 129.316 22.1016 130.09 22.1016C130.84 22.1016 131.41 21.9609 131.801 21.6797C132.191 21.3906 132.387 21.0156 132.387 20.5547ZM143.262 24.2344C141.457 24.2344 139.992 23.668 138.867 22.5352C137.75 21.3945 137.191 19.8789 137.191 17.9883V17.6367C137.191 16.3711 137.434 15.2422 137.918 14.25C138.41 13.25 139.098 12.4727 139.98 11.918C140.863 11.3633 141.848 11.0859 142.934 11.0859C144.66 11.0859 145.992 11.6367 146.93 12.7383C147.875 13.8398 148.348 15.3984 148.348 17.4141V18.5625H140.062C140.148 19.6094 140.496 20.4375 141.105 21.0469C141.723 21.6562 142.496 21.9609 143.426 21.9609C144.73 21.9609 145.793 21.4336 146.613 20.3789L148.148 21.8438C147.641 22.6016 146.961 23.1914 146.109 23.6133C145.266 24.0273 144.316 24.2344 143.262 24.2344ZM142.922 13.3711C142.141 13.3711 141.508 13.6445 141.023 14.1914C140.547 14.7383 140.242 15.5 140.109 16.4766H145.535V16.2656C145.473 15.3125 145.219 14.5938 144.773 14.1094C144.328 13.6172 143.711 13.3711 142.922 13.3711ZM158.145 24C158.02 23.7578 157.91 23.3633 157.816 22.8164C156.91 23.7617 155.801 24.2344 154.488 24.2344C153.215 24.2344 152.176 23.8711 151.371 23.1445C150.566 22.418 150.164 21.5195 150.164 20.4492C150.164 19.0977 150.664 18.0625 151.664 17.3438C152.672 16.6172 154.109 16.2539 155.977 16.2539H157.723V15.4219C157.723 14.7656 157.539 14.2422 157.172 13.8516C156.805 13.4531 156.246 13.2539 155.496 13.2539C154.848 13.2539 154.316 13.418 153.902 13.7461C153.488 14.0664 153.281 14.4766 153.281 14.9766H150.434C150.434 14.2812 150.664 13.6328 151.125 13.0312C151.586 12.4219 152.211 11.9453 153 11.6016C153.797 11.2578 154.684 11.0859 155.66 11.0859C157.145 11.0859 158.328 11.4609 159.211 12.2109C160.094 12.9531 160.547 14 160.57 15.3516V21.0703C160.57 22.2109 160.73 23.1211 161.051 23.8008V24H158.145ZM155.016 21.9492C155.578 21.9492 156.105 21.8125 156.598 21.5391C157.098 21.2656 157.473 20.8984 157.723 20.4375V18.0469H156.188C155.133 18.0469 154.34 18.2305 153.809 18.5977C153.277 18.9648 153.012 19.4844 153.012 20.1562C153.012 20.7031 153.191 21.1406 153.551 21.4688C153.918 21.7891 154.406 21.9492 155.016 21.9492ZM170.191 13.9219C169.816 13.8594 169.43 13.8281 169.031 13.8281C167.727 13.8281 166.848 14.3281 166.395 15.3281V24H163.547V11.3203H166.266L166.336 12.7383C167.023 11.6367 167.977 11.0859 169.195 11.0859C169.602 11.0859 169.938 11.1406 170.203 11.25L170.191 13.9219ZM176.965 21.9609C177.676 21.9609 178.266 21.7539 178.734 21.3398C179.203 20.9258 179.453 20.4141 179.484 19.8047H182.168C182.137 20.5938 181.891 21.332 181.43 22.0195C180.969 22.6992 180.344 23.2383 179.555 23.6367C178.766 24.0352 177.914 24.2344 177 24.2344C175.227 24.2344 173.82 23.6602 172.781 22.5117C171.742 21.3633 171.223 19.7773 171.223 17.7539V17.4609C171.223 15.5312 171.738 13.9883 172.77 12.832C173.801 11.668 175.207 11.0859 176.988 11.0859C178.496 11.0859 179.723 11.5273 180.668 12.4102C181.621 13.2852 182.121 14.4375 182.168 15.8672H179.484C179.453 15.1406 179.203 14.543 178.734 14.0742C178.273 13.6055 177.684 13.3711 176.965 13.3711C176.043 13.3711 175.332 13.707 174.832 14.3789C174.332 15.043 174.078 16.0547 174.07 17.4141V17.8711C174.07 19.2461 174.316 20.2734 174.809 20.9531C175.309 21.625 176.027 21.9609 176.965 21.9609ZM187.125 12.7031C188.055 11.625 189.23 11.0859 190.652 11.0859C193.355 11.0859 194.727 12.6289 194.766 15.7148V24H191.918V15.8203C191.918 14.9453 191.727 14.3281 191.344 13.9688C190.969 13.6016 190.414 13.418 189.68 13.418C188.539 13.418 187.688 13.9258 187.125 14.9414V24H184.277V6H187.125V12.7031ZM203.18 17.8945H197.027V15.5977H203.18V17.8945Z" fill="#A8A8B3"/>
<path d="M211.113 24.2344C209.309 24.2344 207.844 23.668 206.719 22.5352C205.602 21.3945 205.043 19.8789 205.043 17.9883V17.6367C205.043 16.3711 205.285 15.2422 205.77 14.25C206.262 13.25 206.949 12.4727 207.832 11.918C208.715 11.3633 209.699 11.0859 210.785 11.0859C212.512 11.0859 213.844 11.6367 214.781 12.7383C215.727 13.8398 216.199 15.3984 216.199 17.4141V18.5625H207.914C208 19.6094 208.348 20.4375 208.957 21.0469C209.574 21.6562 210.348 21.9609 211.277 21.9609C212.582 21.9609 213.645 21.4336 214.465 20.3789L216 21.8438C215.492 22.6016 214.812 23.1914 213.961 23.6133C213.117 24.0273 212.168 24.2344 211.113 24.2344ZM210.773 13.3711C209.992 13.3711 209.359 13.6445 208.875 14.1914C208.398 14.7383 208.094 15.5 207.961 16.4766H213.387V16.2656C213.324 15.3125 213.07 14.5938 212.625 14.1094C212.18 13.6172 211.562 13.3711 210.773 13.3711ZM221.062 11.3203L221.145 12.7852C222.082 11.6523 223.312 11.0859 224.836 11.0859C227.477 11.0859 228.82 12.5977 228.867 15.6211V24H226.02V15.7852C226.02 14.9805 225.844 14.3867 225.492 14.0039C225.148 13.6133 224.582 13.418 223.793 13.418C222.645 13.418 221.789 13.9375 221.227 14.9766V24H218.379V11.3203H221.062ZM231.281 17.5664C231.281 15.5977 231.742 14.0273 232.664 12.8555C233.594 11.6758 234.824 11.0859 236.355 11.0859C237.801 11.0859 238.938 11.5898 239.766 12.5977L239.895 11.3203H242.461V23.6133C242.461 25.2773 241.941 26.5898 240.902 27.5508C239.871 28.5117 238.477 28.9922 236.719 28.9922C235.789 28.9922 234.879 28.7969 233.988 28.4062C233.105 28.0234 232.434 27.5195 231.973 26.8945L233.32 25.1836C234.195 26.2227 235.273 26.7422 236.555 26.7422C237.5 26.7422 238.246 26.4844 238.793 25.9688C239.34 25.4609 239.613 24.7109 239.613 23.7188V22.8633C238.793 23.7773 237.699 24.2344 236.332 24.2344C234.848 24.2344 233.633 23.6445 232.688 22.4648C231.75 21.2852 231.281 19.6523 231.281 17.5664ZM234.117 17.8125C234.117 19.0859 234.375 20.0898 234.891 20.8242C235.414 21.5508 236.137 21.9141 237.059 21.9141C238.207 21.9141 239.059 21.4219 239.613 20.4375V14.8594C239.074 13.8984 238.23 13.418 237.082 13.418C236.145 13.418 235.414 13.7891 234.891 14.5312C234.375 15.2734 234.117 16.3672 234.117 17.8125ZM248.426 24H245.578V11.3203H248.426V24ZM245.402 8.02734C245.402 7.58984 245.539 7.22656 245.812 6.9375C246.094 6.64844 246.492 6.50391 247.008 6.50391C247.523 6.50391 247.922 6.64844 248.203 6.9375C248.484 7.22656 248.625 7.58984 248.625 8.02734C248.625 8.45703 248.484 8.81641 248.203 9.10547C247.922 9.38672 247.523 9.52734 247.008 9.52734C246.492 9.52734 246.094 9.38672 245.812 9.10547C245.539 8.81641 245.402 8.45703 245.402 8.02734ZM254.18 11.3203L254.262 12.7852C255.199 11.6523 256.43 11.0859 257.953 11.0859C260.594 11.0859 261.938 12.5977 261.984 15.6211V24H259.137V15.7852C259.137 14.9805 258.961 14.3867 258.609 14.0039C258.266 13.6133 257.699 13.418 256.91 13.418C255.762 13.418 254.906 13.9375 254.344 14.9766V24H251.496V11.3203H254.18ZM270.48 24.2344C268.676 24.2344 267.211 23.668 266.086 22.5352C264.969 21.3945 264.41 19.8789 264.41 17.9883V17.6367C264.41 16.3711 264.652 15.2422 265.137 14.25C265.629 13.25 266.316 12.4727 267.199 11.918C268.082 11.3633 269.066 11.0859 270.152 11.0859C271.879 11.0859 273.211 11.6367 274.148 12.7383C275.094 13.8398 275.566 15.3984 275.566 17.4141V18.5625H267.281C267.367 19.6094 267.715 20.4375 268.324 21.0469C268.941 21.6562 269.715 21.9609 270.645 21.9609C271.949 21.9609 273.012 21.4336 273.832 20.3789L275.367 21.8438C274.859 22.6016 274.18 23.1914 273.328 23.6133C272.484 24.0273 271.535 24.2344 270.48 24.2344ZM270.141 13.3711C269.359 13.3711 268.727 13.6445 268.242 14.1914C267.766 14.7383 267.461 15.5 267.328 16.4766H272.754V16.2656C272.691 15.3125 272.438 14.5938 271.992 14.1094C271.547 13.6172 270.93 13.3711 270.141 13.3711Z" fill="#3A3A3A"/>
<path d="M211.113 24.2344C209.309 24.2344 207.844 23.668 206.719 22.5352C205.602 21.3945 205.043 19.8789 205.043 17.9883V17.6367C205.043 16.3711 205.285 15.2422 205.77 14.25C206.262 13.25 206.949 12.4727 207.832 11.918C208.715 11.3633 209.699 11.0859 210.785 11.0859C212.512 11.0859 213.844 11.6367 214.781 12.7383C215.727 13.8398 216.199 15.3984 216.199 17.4141V18.5625H207.914C208 19.6094 208.348 20.4375 208.957 21.0469C209.574 21.6562 210.348 21.9609 211.277 21.9609C212.582 21.9609 213.645 21.4336 214.465 20.3789L216 21.8438C215.492 22.6016 214.812 23.1914 213.961 23.6133C213.117 24.0273 212.168 24.2344 211.113 24.2344ZM210.773 13.3711C209.992 13.3711 209.359 13.6445 208.875 14.1914C208.398 14.7383 208.094 15.5 207.961 16.4766H213.387V16.2656C213.324 15.3125 213.07 14.5938 212.625 14.1094C212.18 13.6172 211.562 13.3711 210.773 13.3711ZM221.062 11.3203L221.145 12.7852C222.082 11.6523 223.312 11.0859 224.836 11.0859C227.477 11.0859 228.82 12.5977 228.867 15.6211V24H226.02V15.7852C226.02 14.9805 225.844 14.3867 225.492 14.0039C225.148 13.6133 224.582 13.418 223.793 13.418C222.645 13.418 221.789 13.9375 221.227 14.9766V24H218.379V11.3203H221.062ZM231.281 17.5664C231.281 15.5977 231.742 14.0273 232.664 12.8555C233.594 11.6758 234.824 11.0859 236.355 11.0859C237.801 11.0859 238.938 11.5898 239.766 12.5977L239.895 11.3203H242.461V23.6133C242.461 25.2773 241.941 26.5898 240.902 27.5508C239.871 28.5117 238.477 28.9922 236.719 28.9922C235.789 28.9922 234.879 28.7969 233.988 28.4062C233.105 28.0234 232.434 27.5195 231.973 26.8945L233.32 25.1836C234.195 26.2227 235.273 26.7422 236.555 26.7422C237.5 26.7422 238.246 26.4844 238.793 25.9688C239.34 25.4609 239.613 24.7109 239.613 23.7188V22.8633C238.793 23.7773 237.699 24.2344 236.332 24.2344C234.848 24.2344 233.633 23.6445 232.688 22.4648C231.75 21.2852 231.281 19.6523 231.281 17.5664ZM234.117 17.8125C234.117 19.0859 234.375 20.0898 234.891 20.8242C235.414 21.5508 236.137 21.9141 237.059 21.9141C238.207 21.9141 239.059 21.4219 239.613 20.4375V14.8594C239.074 13.8984 238.23 13.418 237.082 13.418C236.145 13.418 235.414 13.7891 234.891 14.5312C234.375 15.2734 234.117 16.3672 234.117 17.8125ZM248.426 24H245.578V11.3203H248.426V24ZM245.402 8.02734C245.402 7.58984 245.539 7.22656 245.812 6.9375C246.094 6.64844 246.492 6.50391 247.008 6.50391C247.523 6.50391 247.922 6.64844 248.203 6.9375C248.484 7.22656 248.625 7.58984 248.625 8.02734C248.625 8.45703 248.484 8.81641 248.203 9.10547C247.922 9.38672 247.523 9.52734 247.008 9.52734C246.492 9.52734 246.094 9.38672 245.812 9.10547C245.539 8.81641 245.402 8.45703 245.402 8.02734ZM254.18 11.3203L254.262 12.7852C255.199 11.6523 256.43 11.0859 257.953 11.0859C260.594 11.0859 261.938 12.5977 261.984 15.6211V24H259.137V15.7852C259.137 14.9805 258.961 14.3867 258.609 14.0039C258.266 13.6133 257.699 13.418 256.91 13.418C255.762 13.418 254.906 13.9375 254.344 14.9766V24H251.496V11.3203H254.18ZM270.48 24.2344C268.676 24.2344 267.211 23.668 266.086 22.5352C264.969 21.3945 264.41 19.8789 264.41 17.9883V17.6367C264.41 16.3711 264.652 15.2422 265.137 14.25C265.629 13.25 266.316 12.4727 267.199 11.918C268.082 11.3633 269.066 11.0859 270.152 11.0859C271.879 11.0859 273.211 11.6367 274.148 12.7383C275.094 13.8398 275.566 15.3984 275.566 17.4141V18.5625H267.281C267.367 19.6094 267.715 20.4375 268.324 21.0469C268.941 21.6562 269.715 21.9609 270.645 21.9609C271.949 21.9609 273.012 21.4336 273.832 20.3789L275.367 21.8438C274.859 22.6016 274.18 23.1914 273.328 23.6133C272.484 24.0273 271.535 24.2344 270.48 24.2344ZM270.141 13.3711C269.359 13.3711 268.727 13.6445 268.242 14.1914C267.766 14.7383 267.461 15.5 267.328 16.4766H272.754V16.2656C272.691 15.3125 272.438 14.5938 271.992 14.1094C271.547 13.6172 270.93 13.3711 270.141 13.3711Z" fill="black" fill-opacity="0.2"/>
<path fill-rule="evenodd" clip-rule="evenodd" d="M0 16C0 7.16002 7.16002 0 16 0C24.84 0 32 7.16002 31.9999 16C31.9999 24.832 24.8399 31.9999 16 31.9999C7.16002 31.9999 0 24.832 0 16ZM6.39997 25.6L19.504 19.504L25.6 6.39997L12.496 12.496L6.39997 25.6ZM17.76 16C17.76 16.968 16.9759 17.76 16 17.76C15.032 17.76 14.2399 16.968 14.2399 16C14.2399 15.0319 15.0319 14.2399 16 14.2399C16.976 14.2399 17.76 15.0319 17.76 16Z" fill="#121214"/>
</svg>
